<?xml version="1.0" ?><svg enable-background="new 0 0 64 64" height="64px" id="Layer_1" version="1.1" viewBox="0 0 64 64" width="64px" xml:space="preserve" xmlns="http://www.w3.org/2000/svg" xmlns:xlink="http://www.w3.org/1999/xlink"><circle cx="32" cy="32" fill="#76C2AF" r="32"/><path d="M24.56,41.938c0.357,1.105-0.249,2-1.353,2h-2c-1.105,0-2.29-0.895-2.647-2l-3.233-10  c-0.357-1.105,0.249-2,1.353-2h2c1.105,0,2.289,0.895,2.647,2L24.56,41.938z" fill="#231F20" opacity="0.2"/><path d="M24.034,46.938c0.357,1.105-0.249,2-1.353,2h-2c-1.104,0-2.011-0.145-2.368-1.25l-3.511-10.75  c-0.357-1.105,0.249-2,1.353-2h2c1.105,0,2.29,0.895,2.647,2L24.034,46.938z" fill="#231F20" opacity="0.2"/><path d="M24.56,39.938c0.357,1.105-0.249,2-1.353,2h-2c-1.105,0-2.29-0.895-2.647-2l-3.233-10  c-0.357-1.105,0.249-2,1.353-2h2c1.105,0,2.289,0.895,2.647,2L24.56,39.938z" fill="#C75C5C"/><path d="M24.034,44.938c0.357,1.105-0.249,2-1.353,2h-2c-1.104,0-2.198-0.52-2.556-1.625l-3.324-10.375  c-0.357-1.105,0.249-2,1.353-2h2c1.105,0,2.29,0.895,2.647,2L24.034,44.938z" fill="#4F5D73"/><path d="M48,28.938V18.5c0-0.828-0.672-1.5-1.5-1.5c-0.828,0-1.5,0.672-1.5,1.5v1.008  c-2.76,2.525-6.282,6.429-16,6.429H18h-2h-2c-1.105,0-2,0.895-2,2c-1.105,0-2,0.895-2,2v6c0,1.105,0.895,2,2,2c0,1.105,0.895,2,2,2  h1h1h2h11c9.718,0,13.24,3.905,16,6.43v1.07c0,0.829,0.672,1.5,1.5,1.5c0.828,0,1.5-0.671,1.5-1.5v-10.5c1.105,0,2-0.895,2-2v-4  C50,29.833,49.105,28.938,48,28.938z" fill="#231F20" opacity="0.2"/><path d="M50,32.938c0,1.105-0.895,2-2,2h-8c-1.105,0-2-0.895-2-2v-4c0-1.105,0.895-2,2-2h8c1.105,0,2,0.895,2,2  V32.938z" fill="#E0E0D1"/><path d="M22,33.938c0,1.105-0.895,2-2,2h-8c-1.105,0-2-0.895-2-2v-6c0-1.105,0.895-2,2-2h8c1.105,0,2,0.895,2,2  V33.938z" fill="#4F5D73"/><path d="M46.066,16.591C43.062,18.932,40,23.938,29,23.938H16l-1,14h14c11,0,14.062,5.006,17.066,7.347V16.591z" fill="#FFFFFF"/><path d="M18,37.938c0,0-0.895,0-2,0h-2c-1.105,0-2-0.895-2-2v-10c0-1.105,0.895-2,2-2h2c1.105,0,2,0,2,0V37.938z" fill="#C75C5C"/><path d="M48,45.438c0,0.828-0.672,1.5-1.5,1.5l0,0c-0.828,0-1.5-0.672-1.5-1.5V16.5c0-0.828,0.672-1.5,1.5-1.5l0,0  c0.828,0,1.5,0.672,1.5,1.5V45.438z" fill="#4F5D73"/></svg>