<?xml version="1.0" ?><svg enable-background="new 0 0 64 64" height="64px" version="1.1" viewBox="0 0 64 64" width="64px" xml:space="preserve" xmlns="http://www.w3.org/2000/svg" xmlns:xlink="http://www.w3.org/1999/xlink"><g id="Layer_1"><g><circle cx="32" cy="32" fill="#C75C5C" r="32"/></g><g opacity="0.2"><path d="M28.125,58.062c0,0-16.062-2.377-16.062-16.062s21.003-14.991,16.355-31.969    c0,0,15.726,4.921,11.887,20.245c0,0,2.079-1.328,3.671-3.913c0,0,7.963,6.151,7.963,15.511S40.9,58.12,35.671,58.056    c0,0,5.642-7.618,0.509-12.529C28.894,38.555,32,34.078,32,34.078S14.246,42.763,28.125,58.062z" fill="#231F20"/></g><g><path d="M28.125,56.062c0,0-16.062-2.377-16.062-16.062S33.065,25.009,28.417,8.031    c0,0,15.726,4.921,11.887,20.245c0,0,2.079-1.328,3.671-3.913c0,0,7.963,6.151,7.963,15.511S40.9,56.12,35.671,56.056    c0,0,5.642-7.618,0.509-12.529C28.894,36.555,32,32.078,32,32.078S14.246,40.763,28.125,56.062z" fill="#F5CF87"/></g></g><g id="Layer_2"/></svg>