<?xml version="1.0" ?><svg height="24" version="1.1" width="24" xmlns="http://www.w3.org/2000/svg" xmlns:cc="http://creativecommons.org/ns#" xmlns:dc="http://purl.org/dc/elements/1.1/" xmlns:rdf="http://www.w3.org/1999/02/22-rdf-syntax-ns#"><g transform="translate(0 -1028.4)"><path d="m22 12a10 10 0 1 1 -20 0 10 10 0 1 1 20 0z" fill="#2980b9" transform="translate(0 1029.4)"/><path d="m22 12a10 10 0 1 1 -20 0 10 10 0 1 1 20 0z" fill="#3498db" transform="translate(0 1028.4)"/><path d="m11 1035.4v2h2v-2h-2zm-1 4-1 1h2v6h-2v1h1 4 1v-1h-2v-7h-3z" fill="#2980b9"/><path d="m11 6v2h2v-2h-2zm-1 4l-1 1h2v6h-2v1h1 4 1v-1h-2v-7h-3z" fill="#ecf0f1" transform="translate(0 1028.4)"/></g></svg>